<svg width="19" height="19" viewBox="0 0 19 19" fill="none" xmlns="http://www.w3.org/2000/svg">
<path fill-rule="evenodd" clip-rule="evenodd" d="M2.5 0.703125H16.5C17.605 0.703125 18.5 1.59812 18.5 2.70312V16.7031C18.5 17.8081 17.605 18.7031 16.5 18.7031H2.5C1.395 18.7031 0.5 17.8081 0.5 16.7031V2.70312C0.5 1.59812 1.395 0.703125 2.5 0.703125ZM3.977 14.7031H6.5V7.70312H3.977V14.7031ZM5.194 6.42013C4.423 6.42013 3.908 5.90613 3.908 5.22013C3.908 4.53412 4.422 4.02012 5.279 4.02012C6.05 4.02012 6.565 4.53412 6.565 5.22013C6.565 5.90613 6.051 6.42013 5.194 6.42013ZM13.058 14.7031H15.5V10.8771C15.5 8.68013 14.523 7.70312 13.302 7.70312C12.081 7.70312 11.43 8.11013 11.105 8.68013V7.70312H8.582V14.7031H11.105V10.8771C11.105 9.73812 11.919 9.57512 12.163 9.57512C12.407 9.57512 13.058 9.81913 13.058 10.8771V14.7031Z" fill="black"/>
</svg>
