<svg width="19" height="19" viewBox="0 0 19 19" fill="none" xmlns="http://www.w3.org/2000/svg">
<path fill-rule="evenodd" clip-rule="evenodd" d="M0.5 5.70312C0.5 2.94213 2.739 0.703125 5.5 0.703125H13.5C16.261 0.703125 18.5 2.94213 18.5 5.70312V13.7031C18.5 16.4641 16.261 18.7031 13.5 18.7031H5.5C2.739 18.7031 0.5 16.4641 0.5 13.7031V5.70312ZM16.5 3.70312C16.5 3.15112 16.052 2.70312 15.5 2.70312C14.948 2.70312 14.5 3.15112 14.5 3.70312C14.5 4.25513 14.948 4.70312 15.5 4.70312C16.052 4.70312 16.5 4.25513 16.5 3.70312ZM9.5 4.70312C12.261 4.70312 14.5 6.94213 14.5 9.70312C14.5 12.4641 12.261 14.7031 9.5 14.7031C6.739 14.7031 4.5 12.4641 4.5 9.70312C4.5 6.94213 6.739 4.70312 9.5 4.70312ZM6.5 9.70312C6.5 8.04627 7.84315 6.70312 9.5 6.70312C11.1569 6.70312 12.5 8.04627 12.5 9.70312C12.5 11.36 11.1569 12.7031 9.5 12.7031C7.84315 12.7031 6.5 11.36 6.5 9.70312Z" fill="black"/>
</svg>
