<svg width="21" height="21" viewBox="0 0 21 21" fill="none" xmlns="http://www.w3.org/2000/svg">
<path fill-rule="evenodd" clip-rule="evenodd" d="M10.5 0.703125C5 0.703125 0.5 5.20312 0.5 10.7031C0.5 16.2031 5 20.7031 10.5 20.7031C13.0078 20.7031 15.3008 19.7734 17.0625 18.2344C17.2656 18.1367 17.4336 17.9688 17.5312 17.7656C19.3516 15.9531 20.5 13.4609 20.5 10.7031C20.5 5.20312 16 0.703125 10.5 0.703125ZM11.5312 2.76562C12.8008 2.93359 13.9883 3.41406 15 4.10938C13.7812 5.17969 11.8125 7.38672 11.5625 10.6719C11.2227 10.6875 10.8672 10.7031 10.5 10.7031C10.2448 10.7031 9.99794 10.6926 9.75799 10.6824C9.67112 10.6787 9.58514 10.675 9.5 10.6719C9.50391 7.92188 10.0352 5.92188 10.5625 4.60938C11.0703 3.34766 11.4961 2.80859 11.5312 2.76562ZM8.71875 3.85938C8.875 3.47656 9.03516 3.125 9.1875 2.82812C7.77734 3.06641 6.46484 3.67188 5.40625 4.54688C5.60938 5.05469 6.3125 7.01562 6.46875 10.2969C6.78516 10.3633 7.14062 10.4336 7.5 10.4844C7.52734 7.56641 8.11328 5.35547 8.71875 3.85938ZM16.5 5.45312C17.332 6.40625 17.9414 7.56641 18.25 8.82812C18.0977 8.96094 17.7383 9.23828 16.7812 9.64062C16.0352 9.95703 14.9609 10.2461 13.5938 10.4531C13.9297 7.77344 15.6445 6.13281 16.5 5.45312ZM4.4375 9.70312C4.32031 8.12109 4.08594 7.03125 3.875 6.26562C3.35938 7.03516 2.97656 7.90625 2.75 8.82812C2.90234 8.96094 3.26172 9.23828 4.21875 9.64062C4.25055 9.65454 4.28942 9.66339 4.32868 9.67234L4.32869 9.67234L4.32871 9.67234C4.36662 9.68098 4.40488 9.6897 4.4375 9.70312ZM2.5 11.0469C2.77344 11.1992 3.07812 11.332 3.4375 11.4844C3.73828 11.6094 4.10156 11.7422 4.46875 11.8594C4.42578 13.1953 4.16797 14.3672 3.90625 15.2031C3.08984 14.0078 2.56641 12.582 2.5 11.0469ZM16.375 16.1094C17.6133 14.7617 18.418 12.9883 18.5 11.0469C18.2266 11.1992 17.9219 11.332 17.5625 11.4844C16.6094 11.8867 15.2812 12.2578 13.625 12.4844C13.9688 14.5508 15.5273 15.6562 16.375 16.1094ZM6.46875 12.3594C6.80859 12.4219 7.18359 12.4688 7.5625 12.5156C7.74219 14.6523 8.23047 16.3398 8.71875 17.5469C8.875 17.9297 9.03516 18.2812 9.1875 18.5781C7.79297 18.3438 6.49219 17.75 5.4375 16.8906C5.76953 16.082 6.33594 14.4297 6.46875 12.3594ZM9.8333 12.6826C9.75282 12.6788 9.673 12.675 9.59375 12.6719C9.76953 14.4492 10.168 15.8164 10.5625 16.7969C11.0703 18.0586 11.4961 18.5977 11.5312 18.6406C12.707 18.4844 13.8203 18.0664 14.7812 17.4531C13.5664 16.6406 11.9844 15.1328 11.625 12.6719C11.2656 12.6875 10.8867 12.7031 10.5 12.7031C10.272 12.7031 10.0503 12.6927 9.8333 12.6826Z" fill="black"/>
</svg>
