<svg width="19" height="15" viewBox="0 0 19 15" fill="none" xmlns="http://www.w3.org/2000/svg">
<path d="M18.5 0.703125C17.798 1.10822 16.3895 1.66032 15.5615 1.81956C15.5372 1.82568 15.5174 1.83355 15.494 1.83968C14.7623 1.13797 13.7597 0.703125 12.65 0.703125C10.4135 0.703125 8.6 2.46614 8.6 4.64038C8.6 4.755 8.5901 4.96586 8.6 5.07785C5.5823 5.07785 3.2855 3.54145 1.6385 1.57807C1.4594 2.01554 1.3811 2.70675 1.3811 3.35596C1.3811 4.58176 2.3666 5.78568 3.9011 6.53201C3.6185 6.60288 3.3071 6.65363 2.9831 6.65363C2.4602 6.65363 1.9067 6.51976 1.4 6.11379C1.4 6.12866 1.4 6.14266 1.4 6.15841C1.4 7.87155 3.2702 9.03785 4.9334 9.36246C4.5959 9.55582 3.9155 9.57507 3.5834 9.57507C3.3494 9.57507 2.5214 9.47095 2.3 9.43071C2.7626 10.835 4.4312 11.6242 6.0215 11.6522C4.7777 12.6006 3.9146 12.9524 1.3676 12.9524H0.5C2.1092 13.955 4.1585 14.7031 6.2123 14.7031C12.8993 14.7031 16.7 9.74831 16.7 5.07785C16.7 5.00261 16.6982 4.84512 16.6955 4.68675C16.6955 4.671 16.7 4.65613 16.7 4.64038C16.7 4.61676 16.6928 4.59401 16.6928 4.57038C16.6901 4.45139 16.6874 4.34027 16.6847 4.28253C17.3957 3.78381 18.0122 3.16172 18.5 2.45302C17.8475 2.73475 17.1473 2.92374 16.412 3.00948C17.1626 2.57201 18.2291 1.52907 18.5 0.703125Z" fill="black"/>
</svg>
