<svg width="21" height="17" viewBox="0 0 21 17" fill="none" xmlns="http://www.w3.org/2000/svg">
<path d="M16.66 1.2131C12.5681 0.533132 8.39194 0.533132 4.3 1.2131C1.96 1.7031 0.5 3.2131 0.5 5.1831V12.1831C0.5 14.1831 1.96 15.6731 4.34 16.1831C6.37551 16.5258 8.43585 16.6997 10.5 16.7031C12.5705 16.7026 14.6374 16.5321 16.68 16.1931C19 15.7531 20.5 14.1931 20.5 12.1931V5.1931C20.5 3.2031 19 1.6431 16.66 1.2131ZM13.76 9.1531L8.76 12.1531C8.68179 12.2008 8.59157 12.2251 8.5 12.2231C8.41318 12.2224 8.32768 12.2019 8.25 12.1631C8.17137 12.1154 8.1068 12.0477 8.06289 11.9669C8.01897 11.8861 7.99727 11.795 8 11.7031V5.7031C8.00075 5.61454 8.02411 5.52764 8.06786 5.45064C8.11161 5.37364 8.17431 5.30909 8.25 5.2631C8.32843 5.22109 8.41603 5.1991 8.505 5.1991C8.59398 5.1991 8.68157 5.22109 8.76 5.2631L13.76 8.2631C13.8323 8.30919 13.8918 8.37275 13.933 8.44791C13.9742 8.52306 13.9958 8.60739 13.9958 8.6931C13.9958 8.77882 13.9742 8.86315 13.933 8.9383C13.8918 9.01346 13.8323 9.07702 13.76 9.12311V9.1531Z" fill="black"/>
</svg>
